<?xml version="1.0" standalone="no"?>
<!DOCTYPE svg PUBLIC "-//W3C//DTD SVG 20010904//EN"
 "http://www.w3.org/TR/2001/REC-SVG-20010904/DTD/svg10.dtd">
<svg version="1.0" xmlns="http://www.w3.org/2000/svg"
 viewBox="0 0 450.000000 357.000000"
 preserveAspectRatio="xMidYMid meet">
<metadata>
Created by potrace 1.16, written by Peter Selinger 2001-2019
</metadata>
<g transform="translate(0.000000,357.000000) scale(0.093750,-0.100000)"
fill="#000000" stroke="none">
<path d="M4795 1785 c0 -984 1 -1386 2 -892 2 494 2 1300 0 1790 -1 491 -2 87
-2 -898z"/>
<path d="M290 2854 c0 -4 94 -102 210 -217 116 -115 210 -215 210 -222 0 -7
-51 -135 -114 -286 -62 -151 -155 -375 -206 -499 -51 -124 -120 -290 -153
-370 -184 -446 -197 -480 -193 -480 2 0 263 259 580 577 l577 576 45 -44 c25
-24 289 -288 587 -586 298 -299 548 -543 556 -543 8 0 275 260 593 578 318
317 580 578 582 580 2 2 266 -258 585 -579 320 -320 583 -580 585 -578 1 2
-68 171 -155 374 -87 204 -200 467 -250 585 -50 118 -106 249 -124 290 -18 41
-56 131 -85 200 -29 69 -58 138 -66 154 -17 35 -40 7 224 270 105 106 192 195
192 199 0 4 -197 7 -437 7 l-438 0 -602 -602 -603 -603 -610 610 -610 610
-440 3 c-242 2 -440 0 -440 -4z"/>
</g>
</svg>
